<?xml version="1.0" encoding="UTF-8"?>
<!--Generator: Apple Native CoreSVG 341-->
<!DOCTYPE svg
PUBLIC "-//W3C//DTD SVG 1.1//EN"
       "http://www.w3.org/Graphics/SVG/1.1/DTD/svg11.dtd">
<svg version="1.1" xmlns="http://www.w3.org/2000/svg" xmlns:xlink="http://www.w3.org/1999/xlink" viewBox="0 0 3300 2200">
 <!--glyph: "", point size: 100.0, font version: "21.0d6e2", template writer version: "138.0.0"-->
 <style>.defaults {-sfsymbols-variable-value-mode:color;-sfsymbols-draw-reverses-motion-groups:false}

.monochrome-0 {-sfsymbols-motion-group:1;-sfsymbols-layer-tags:7290dc234b012499 _enclosure.fill circle}
.monochrome-1 {opacity:0.0;-sfsymbols-clear-behind:true;-sfsymbols-variable-threshold:0.76;-sfsymbols-motion-group:0;-sfsymbols-always-pulses:true;-sfsymbols-layer-tags:-3fd02a85f93cf875 7290dc234b012499 dot.radiowaves.left.and.right}
.monochrome-2 {opacity:0.0;-sfsymbols-clear-behind:true;-sfsymbols-variable-threshold:0.51;-sfsymbols-motion-group:0;-sfsymbols-always-pulses:true;-sfsymbols-layer-tags:-3fd02a85f93cf875 7290dc234b012499 dot.radiowaves.left.and.right}
.monochrome-3 {opacity:0.0;-sfsymbols-clear-behind:true;-sfsymbols-variable-threshold:0.26;-sfsymbols-motion-group:0;-sfsymbols-always-pulses:true;-sfsymbols-layer-tags:-3fd02a85f93cf875 7290dc234b012499 dot.radiowaves.left.and.right}
.monochrome-4 {opacity:0.0;-sfsymbols-clear-behind:true;-sfsymbols-variable-threshold:0.0;-sfsymbols-motion-group:0;-sfsymbols-always-pulses:true;-sfsymbols-layer-tags:-3fd02a85f93cf875 7290dc234b012499 dot.radiowaves.left.and.right}

.multicolor-0:tintColor {-sfsymbols-motion-group:1;-sfsymbols-layer-tags:7290dc234b012499 _enclosure.fill circle}
.multicolor-1:white {-sfsymbols-variable-threshold:0.76;-sfsymbols-motion-group:0;-sfsymbols-always-pulses:true;-sfsymbols-layer-tags:-3fd02a85f93cf875 7290dc234b012499 dot.radiowaves.left.and.right}
.multicolor-2:white {-sfsymbols-variable-threshold:0.51;-sfsymbols-motion-group:0;-sfsymbols-always-pulses:true;-sfsymbols-layer-tags:-3fd02a85f93cf875 7290dc234b012499 dot.radiowaves.left.and.right}
.multicolor-3:white {-sfsymbols-variable-threshold:0.26;-sfsymbols-motion-group:0;-sfsymbols-always-pulses:true;-sfsymbols-layer-tags:-3fd02a85f93cf875 7290dc234b012499 dot.radiowaves.left.and.right}
.multicolor-4:white {-sfsymbols-variable-threshold:0.0;-sfsymbols-motion-group:0;-sfsymbols-always-pulses:true;-sfsymbols-layer-tags:-3fd02a85f93cf875 7290dc234b012499 dot.radiowaves.left.and.right}

.hierarchical-0:tertiary {-sfsymbols-motion-group:1;-sfsymbols-layer-tags:7290dc234b012499 _enclosure.fill circle}
.hierarchical-1:primary {-sfsymbols-variable-threshold:0.76;-sfsymbols-motion-group:0;-sfsymbols-always-pulses:true;-sfsymbols-layer-tags:-3fd02a85f93cf875 7290dc234b012499 dot.radiowaves.left.and.right}
.hierarchical-2:primary {-sfsymbols-variable-threshold:0.51;-sfsymbols-motion-group:0;-sfsymbols-always-pulses:true;-sfsymbols-layer-tags:-3fd02a85f93cf875 7290dc234b012499 dot.radiowaves.left.and.right}
.hierarchical-3:primary {-sfsymbols-variable-threshold:0.26;-sfsymbols-motion-group:0;-sfsymbols-always-pulses:true;-sfsymbols-layer-tags:-3fd02a85f93cf875 7290dc234b012499 dot.radiowaves.left.and.right}
.hierarchical-4:primary {-sfsymbols-variable-threshold:0.0;-sfsymbols-motion-group:0;-sfsymbols-always-pulses:true;-sfsymbols-layer-tags:-3fd02a85f93cf875 7290dc234b012499 dot.radiowaves.left.and.right}

.SFSymbolsPreviewWireframe {fill:none;opacity:1.0;stroke:black;stroke-width:0.5}
</style>
 <g id="Notes">
  <rect height="2200" id="artboard" style="fill:white;opacity:1" width="3300" x="0" y="0"/>
  <line style="fill:none;stroke:black;opacity:1;stroke-width:0.5;" x1="263" x2="3036" y1="292" y2="292"/>
  <text style="stroke:none;fill:black;font-family:sans-serif;font-size:13;font-weight:bold;" transform="matrix(1 0 0 1 263 322)">Weight/Scale Variations</text>
  <text style="stroke:none;fill:black;font-family:sans-serif;font-size:13;text-anchor:middle;" transform="matrix(1 0 0 1 559.711 322)">Ultralight</text>
  <text style="stroke:none;fill:black;font-family:sans-serif;font-size:13;text-anchor:middle;" transform="matrix(1 0 0 1 856.422 322)">Thin</text>
  <text style="stroke:none;fill:black;font-family:sans-serif;font-size:13;text-anchor:middle;" transform="matrix(1 0 0 1 1153.13 322)">Light</text>
  <text style="stroke:none;fill:black;font-family:sans-serif;font-size:13;text-anchor:middle;" transform="matrix(1 0 0 1 1449.84 322)">Regular</text>
  <text style="stroke:none;fill:black;font-family:sans-serif;font-size:13;text-anchor:middle;" transform="matrix(1 0 0 1 1746.56 322)">Medium</text>
  <text style="stroke:none;fill:black;font-family:sans-serif;font-size:13;text-anchor:middle;" transform="matrix(1 0 0 1 2043.27 322)">Semibold</text>
  <text style="stroke:none;fill:black;font-family:sans-serif;font-size:13;text-anchor:middle;" transform="matrix(1 0 0 1 2339.98 322)">Bold</text>
  <text style="stroke:none;fill:black;font-family:sans-serif;font-size:13;text-anchor:middle;" transform="matrix(1 0 0 1 2636.69 322)">Heavy</text>
  <text style="stroke:none;fill:black;font-family:sans-serif;font-size:13;text-anchor:middle;" transform="matrix(1 0 0 1 2933.4 322)">Black</text>
  <line style="fill:none;stroke:black;opacity:1;stroke-width:0.5;" x1="263" x2="3036" y1="1903" y2="1903"/>
  <g transform="matrix(0.2 0 0 0.2 263 1933)">
   <path d="m46.2402 4.15039c21.7773 0 39.4531-17.627 39.4531-39.4043s-17.6758-39.4043-39.4531-39.4043c-21.7285 0-39.4043 17.627-39.4043 39.4043s17.6758 39.4043 39.4043 39.4043Zm0-7.42188c-17.6758 0-31.9336-14.3066-31.9336-31.9824s14.2578-31.9824 31.9336-31.9824 31.9824 14.3066 31.9824 31.9824-14.3066 31.9824-31.9824 31.9824Zm3.61328-17.7734v-28.4668c0-2.24609-1.46484-3.75977-3.71094-3.75977-2.14844 0-3.61328 1.51367-3.61328 3.75977v28.4668c0 2.19727 1.46484 3.71094 3.61328 3.71094 2.24609 0 3.71094-1.51367 3.71094-3.71094Zm-17.8223-10.5957h28.418c2.19727 0 3.71094-1.46484 3.71094-3.61328 0-2.19727-1.51367-3.71094-3.71094-3.71094h-28.418c-2.24609 0-3.75977 1.51367-3.75977 3.71094 0 2.14844 1.51367 3.61328 3.75977 3.61328Z"/>
  </g>
  <g transform="matrix(0.2 0 0 0.2 281.506 1933)">
   <path d="m58.5449 14.5508c27.4902 0 49.8047-22.3145 49.8047-49.8047s-22.3145-49.8047-49.8047-49.8047-49.8047 22.3145-49.8047 49.8047 22.3145 49.8047 49.8047 49.8047Zm0-8.30078c-22.9492 0-41.5039-18.5547-41.5039-41.5039s18.5547-41.5039 41.5039-41.5039 41.5039 18.5547 41.5039 41.5039-18.5547 41.5039-41.5039 41.5039Zm4.05273-23.0957v-36.9141c0-2.49023-1.70898-4.19922-4.15039-4.19922-2.39258 0-4.05273 1.70898-4.05273 4.19922v36.9141c0 2.44141 1.66016 4.15039 4.05273 4.15039 2.44141 0 4.15039-1.66016 4.15039-4.15039Zm-22.5586-14.4043h36.9629c2.44141 0 4.15039-1.61133 4.15039-4.00391 0-2.44141-1.70898-4.15039-4.15039-4.15039h-36.9629c-2.49023 0-4.15039 1.70898-4.15039 4.15039 0 2.39258 1.66016 4.00391 4.15039 4.00391Z"/>
  </g>
  <g transform="matrix(0.2 0 0 0.2 304.924 1933)">
   <path d="m74.8535 28.3203c35.1074 0 63.623-28.4668 63.623-63.5742s-28.5156-63.623-63.623-63.623-63.5742 28.5156-63.5742 63.623 28.4668 63.5742 63.5742 63.5742Zm0-9.08203c-30.127 0-54.4922-24.3652-54.4922-54.4922s24.3652-54.4922 54.4922-54.4922 54.4922 24.3652 54.4922 54.4922-24.3652 54.4922-54.4922 54.4922Zm4.44336-30.3223v-48.4863c0-2.73438-1.85547-4.63867-4.54102-4.63867-2.58789 0-4.44336 1.9043-4.44336 4.63867v48.4863c0 2.68555 1.85547 4.58984 4.44336 4.58984 2.68555 0 4.54102-1.85547 4.54102-4.58984Zm-28.7109-19.7754h48.4863c2.68555 0 4.58984-1.80664 4.58984-4.39453 0-2.73438-1.85547-4.58984-4.58984-4.58984h-48.4863c-2.73438 0-4.58984 1.85547-4.58984 4.58984 0 2.58789 1.85547 4.39453 4.58984 4.39453Z"/>
  </g>
  <text style="stroke:none;fill:black;font-family:sans-serif;font-size:13;font-weight:bold;" transform="matrix(1 0 0 1 263 1953)">Design Variations</text>
  <text style="stroke:none;fill:black;font-family:sans-serif;font-size:13;" transform="matrix(1 0 0 1 263 1971)">Symbols are supported in up to nine weights and three scales.</text>
  <text style="stroke:none;fill:black;font-family:sans-serif;font-size:13;" transform="matrix(1 0 0 1 263 1989)">For optimal layout with text and other symbols, vertically align</text>
  <text style="stroke:none;fill:black;font-family:sans-serif;font-size:13;" transform="matrix(1 0 0 1 263 2007)">symbols with the adjacent text.</text>
  <line style="fill:none;stroke:#00AEEF;stroke-width:0.5;opacity:1.0;" x1="776" x2="776" y1="1919" y2="1933"/>
  <g transform="matrix(0.2 0 0 0.2 776 1933)">
   <path d="m16.5527 0.78125c2.58789 0 3.85742-0.976562 4.78516-3.71094l20.5566-57.5195h0.244141l20.6055 57.5195c0.927734 2.73438 2.19727 3.71094 4.73633 3.71094 2.58789 0 4.24805-1.5625 4.24805-4.00391 0-0.830078-0.146484-1.61133-0.537109-2.63672l-22.9004-60.9863c-1.12305-2.97852-3.125-4.49219-6.25-4.49219-3.02734 0-5.07812 1.46484-6.15234 4.44336l-22.9004 61.084c-0.390625 1.02539-0.537109 1.80664-0.537109 2.63672 0 2.44141 1.5625 3.95508 4.10156 3.95508Zm10.2051-20.9473h30.6641c2.00195 0 3.66211-1.66016 3.66211-3.66211 0-2.05078-1.66016-3.66211-3.66211-3.66211h-30.6641c-2.00195 0-3.66211 1.61133-3.66211 3.66211 0 2.00195 1.66016 3.66211 3.66211 3.66211Z"/>
  </g>
  <line style="fill:none;stroke:#00AEEF;stroke-width:0.5;opacity:1.0;" x1="792.836" x2="792.836" y1="1919" y2="1933"/>
  <text style="stroke:none;fill:black;font-family:sans-serif;font-size:13;font-weight:bold;" transform="matrix(1 0 0 1 776 1953)">Margins</text>
  <text style="stroke:none;fill:black;font-family:sans-serif;font-size:13;" transform="matrix(1 0 0 1 776 1971)">Leading and trailing margins on the left and right side of each symbol</text>
  <text style="stroke:none;fill:black;font-family:sans-serif;font-size:13;" transform="matrix(1 0 0 1 776 1989)">can be adjusted by modifying the x-location of the margin guidelines.</text>
  <text style="stroke:none;fill:black;font-family:sans-serif;font-size:13;" transform="matrix(1 0 0 1 776 2007)">Modifications are automatically applied proportionally to all</text>
  <text style="stroke:none;fill:black;font-family:sans-serif;font-size:13;" transform="matrix(1 0 0 1 776 2025)">scales and weights.</text>
  <g transform="matrix(0.2 0 0 0.2 1289 1933)">
   <path d="m14.209 13.1348 7.86133 7.86133c4.29688 4.39453 9.32617 4.10156 13.8672-1.02539l60.6934-68.2129-4.88281-4.88281-60.2539 67.6758c-1.80664 1.95312-3.4668 2.44141-5.81055 0.0976562l-5.17578-5.12695c-2.29492-2.29492-1.80664-3.95508 0.195312-5.81055l67.4805-62.1582-4.88281-4.83398-68.0664 62.5977c-4.98047 4.58984-5.32227 9.47266-1.02539 13.8184Zm44.873-97.4609c-2.05078 2.00195-2.24609 4.88281-1.07422 6.78711 1.12305 1.80664 3.4668 3.02734 6.5918 2.24609 5.85938-1.66016 12.5977-2.39258 18.8965 0.927734l-2.68555 7.12891c-1.61133 4.00391-0.732422 6.88477 1.70898 9.42383l10.2539 10.3027c2.34375 2.39258 4.54102 2.44141 7.08008 1.95312l4.44336-0.732422 2.58789 2.53906-0.195312 2.24609c-0.0976562 2.29492 0.537109 4.29688 2.7832 6.49414l3.36914 3.32031c2.29492 2.29492 5.51758 2.49023 7.8125 0.195312l12.9883-13.0371c2.29492-2.34375 2.14844-5.37109-0.195312-7.66602l-3.41797-3.41797c-2.19727-2.19727-4.05273-3.02734-6.34766-2.88086l-2.34375 0.244141-2.44141-2.44141 1.02539-4.6875c0.634766-2.73438-0.244141-4.98047-2.88086-7.61719l-11.2793-11.1816c-12.9395-12.8418-35.5957-11.0352-46.6797-0.146484Zm7.08008 2.05078c8.78906-6.39648 25.9766-5.66406 33.6914 1.95312l12.3047 12.207c1.02539 1.02539 1.2207 1.80664 0.927734 3.32031l-1.46484 6.64062 6.73828 6.68945 4.39453-0.244141c1.12305-0.0488281 1.51367 0.0488281 2.34375 0.878906l2.53906 2.49023-10.8398 10.8398-2.49023-2.49023c-0.830078-0.878906-0.976562-1.2207-0.927734-2.39258l0.292969-4.3457-6.68945-6.73828-6.83594 1.17188c-1.41602 0.292969-2.05078 0.195312-3.17383-0.878906l-8.93555-8.88672c-1.07422-1.02539-1.17188-1.70898-0.488281-3.36914l4.58984-11.4746c-6.10352-6.34766-17.041-7.51953-25.5859-4.58984-0.683594 0.244141-0.927734-0.390625-0.390625-0.78125Z"/>
  </g>
  <text style="stroke:none;fill:black;font-family:sans-serif;font-size:13;font-weight:bold;" transform="matrix(1 0 0 1 1289 1953)">Exporting</text>
  <text style="stroke:none;fill:black;font-family:sans-serif;font-size:13;" transform="matrix(1 0 0 1 1289 1971)">Symbols should be outlined when exporting to ensure the</text>
  <text style="stroke:none;fill:black;font-family:sans-serif;font-size:13;" transform="matrix(1 0 0 1 1289 1989)">design is preserved when submitting to Xcode.</text>
  <text id="template-version" style="stroke:none;fill:black;font-family:sans-serif;font-size:13;text-anchor:end;" transform="matrix(1 0 0 1 3036 1933)">Template v.7.0</text>
  <text style="stroke:none;fill:black;font-family:sans-serif;font-size:13;text-anchor:end;" transform="matrix(1 0 0 1 3036 1951)">Requires Xcode 17 or greater</text>
  <text id="descriptive-name" style="stroke:none;fill:black;font-family:sans-serif;font-size:13;text-anchor:end;" transform="matrix(1 0 0 1 3036 1969)">Generated from circle.fill</text>
  <text style="stroke:none;fill:black;font-family:sans-serif;font-size:13;text-anchor:end;" transform="matrix(1 0 0 1 3036 1987)">Typeset at 100.0 points</text>
  <text style="stroke:none;fill:black;font-family:sans-serif;font-size:13;" transform="matrix(1 0 0 1 263 726)">Small</text>
  <text style="stroke:none;fill:black;font-family:sans-serif;font-size:13;" transform="matrix(1 0 0 1 263 1156)">Medium</text>
  <text style="stroke:none;fill:black;font-family:sans-serif;font-size:13;" transform="matrix(1 0 0 1 263 1586)">Large</text>
 </g>
 <g id="Guides">
  <g id="H-reference" style="fill:#27AAE1;stroke:none;" transform="matrix(1 0 0 1 339 696)">
   <path d="M0.993654 0L3.63775 0L29.3281-67.1323L30.0303-67.1323L30.0303-70.459L28.1226-70.459ZM11.6885-24.4799L46.9815-24.4799L46.2315-26.7285L12.4385-26.7285ZM55.1196 0L57.7637 0L30.6382-70.459L29.4326-70.459L29.4326-67.1323Z"/>
  </g>
  <line id="Baseline-S" style="fill:none;stroke:#27AAE1;opacity:1;stroke-width:0.5;" x1="263" x2="3036" y1="696" y2="696"/>
  <line id="Capline-S" style="fill:none;stroke:#27AAE1;opacity:1;stroke-width:0.5;" x1="263" x2="3036" y1="625.541" y2="625.541"/>
  <g id="H-reference" style="fill:#27AAE1;stroke:none;" transform="matrix(1 0 0 1 339 1126)">
   <path d="M0.993654 0L3.63775 0L29.3281-67.1323L30.0303-67.1323L30.0303-70.459L28.1226-70.459ZM11.6885-24.4799L46.9815-24.4799L46.2315-26.7285L12.4385-26.7285ZM55.1196 0L57.7637 0L30.6382-70.459L29.4326-70.459L29.4326-67.1323Z"/>
  </g>
  <line id="Baseline-M" style="fill:none;stroke:#27AAE1;opacity:1;stroke-width:0.5;" x1="263" x2="3036" y1="1126" y2="1126"/>
  <line id="Capline-M" style="fill:none;stroke:#27AAE1;opacity:1;stroke-width:0.5;" x1="263" x2="3036" y1="1055.54" y2="1055.54"/>
  <g id="H-reference" style="fill:#27AAE1;stroke:none;" transform="matrix(1 0 0 1 339 1556)">
   <path d="M0.993654 0L3.63775 0L29.3281-67.1323L30.0303-67.1323L30.0303-70.459L28.1226-70.459ZM11.6885-24.4799L46.9815-24.4799L46.2315-26.7285L12.4385-26.7285ZM55.1196 0L57.7637 0L30.6382-70.459L29.4326-70.459L29.4326-67.1323Z"/>
  </g>
  <line id="Baseline-L" style="fill:none;stroke:#27AAE1;opacity:1;stroke-width:0.5;" x1="263" x2="3036" y1="1556" y2="1556"/>
  <line id="Capline-L" style="fill:none;stroke:#27AAE1;opacity:1;stroke-width:0.5;" x1="263" x2="3036" y1="1485.54" y2="1485.54"/>
  <line id="right-margin-Black-S" style="fill:none;stroke:#00AEEF;stroke-width:0.5;opacity:1.0;" x1="2982.23" x2="2982.23" y1="600.785" y2="720.121"/>
  <line id="left-margin-Black-S" style="fill:none;stroke:#00AEEF;stroke-width:0.5;opacity:1.0;" x1="2884.57" x2="2884.57" y1="600.785" y2="720.121"/>
  <line id="right-margin-Regular-S" style="fill:none;stroke:#00AEEF;stroke-width:0.5;opacity:1.0;" x1="1496.11" x2="1496.11" y1="600.785" y2="720.121"/>
  <line id="left-margin-Regular-S" style="fill:none;stroke:#00AEEF;stroke-width:0.5;opacity:1.0;" x1="1403.58" x2="1403.58" y1="600.785" y2="720.121"/>
  <line id="right-margin-Ultralight-S" style="fill:none;stroke:#00AEEF;stroke-width:0.5;opacity:1.0;" x1="603.773" x2="603.773" y1="600.785" y2="720.121"/>
  <line id="left-margin-Ultralight-S" style="fill:none;stroke:#00AEEF;stroke-width:0.5;opacity:1.0;" x1="515.649" x2="515.649" y1="600.785" y2="720.121"/>
 </g>
 <g id="Symbols">
  <g id="Black-S" transform="matrix(1 0 0 1 2884.57 696)">
   <path class="monochrome-0 multicolor-0:tintColor hierarchical-0:tertiary SFSymbolsPreviewWireframe" d="M48.8281 6.73828C72.0215 6.73828 90.8203-12.0605 90.8203-35.2539C90.8203-58.4473 72.0215-77.2461 48.8281-77.2461C25.6348-77.2461 6.83594-58.4473 6.83594-35.2539C6.83594-12.0605 25.6348 6.73828 48.8281 6.73828Z"/>
   <path class="monochrome-1 multicolor-1:white hierarchical-1:primary SFSymbolsPreviewWireframe" d="M19.6666-35.2143C19.6666-28.6063 22.0047-22.3728 26.4079-17.7168C27.549-16.4674 29.3788-16.4325 30.4741-17.6649C31.5161-18.7877 31.3546-20.424 30.183-21.6534C26.9296-25.1885 25.1313-29.9657 25.1313-35.2143C25.1313-40.4629 26.9296-45.2401 30.183-48.7752C31.3546-50.0046 31.5161-51.6393 30.4741-52.7636C29.3788-53.9961 27.549-53.9612 26.4079-52.7103C22.0047-48.0558 19.6666-41.8222 19.6666-35.2143ZM77.9957-35.2143C77.9957-41.8222 75.6572-48.0558 71.2541-52.7103C70.1143-53.9612 68.2834-53.9961 67.1879-52.7636C66.1459-51.6393 66.3104-50.0046 67.4791-48.7752C70.7324-45.2401 72.5307-40.4629 72.5307-35.2143C72.5307-29.9657 70.7324-25.1885 67.4791-21.6534C66.3104-20.424 66.1459-18.7877 67.1879-17.6649C68.2834-16.4325 70.1143-16.4674 71.2541-17.7168C75.6572-22.3728 77.9957-28.6063 77.9957-35.2143Z"/>
   <path class="monochrome-2 multicolor-2:white hierarchical-2:primary SFSymbolsPreviewWireframe" d="M27.4301-35.2143C27.4301-30.4343 29.0767-25.87 32.1175-22.4666C33.3151-21.1305 35.233-21.1046 36.3284-22.3949C37.3644-23.5406 37.1724-25.0611 36.0038-26.3454C33.9531-28.7815 32.8948-31.8073 32.8948-35.2143C32.8948-38.6213 33.9531-41.647 36.0038-44.0816C37.1724-45.3674 37.3644-46.888 36.3284-48.0336C35.233-49.324 33.3151-49.298 32.1175-47.962C29.0767-44.5586 27.4301-39.9942 27.4301-35.2143ZM70.2321-35.2143C70.2321-39.9942 68.5866-44.5586 65.546-47.962C64.347-49.298 62.4305-49.324 61.3351-48.0336C60.2991-46.888 60.4896-45.3674 61.6581-44.0816C63.7118-41.647 64.7672-38.6213 64.7672-35.2143C64.7672-31.8073 63.7118-28.7815 61.6581-26.3454C60.4896-25.0611 60.2991-23.5406 61.3351-22.3949C62.4305-21.1046 64.347-21.1305 65.546-22.4666C68.5866-25.87 70.2321-30.4343 70.2321-35.2143Z"/>
   <path class="monochrome-3 multicolor-3:white hierarchical-3:primary SFSymbolsPreviewWireframe" d="M35.1935-35.2143C35.1935-32.5017 36.0939-29.8093 37.6718-27.6206C38.787-26.1703 40.8147-26.0835 41.9618-27.3998C42.9764-28.4587 42.7905-29.8147 41.7605-31.3274C41.0161-32.4237 40.6583-33.6917 40.6583-35.2143C40.6583-36.7338 41.0161-38.0048 41.7605-39.1011C42.7905-40.6139 42.9764-41.9699 41.9618-43.0288C40.8147-44.345 38.787-44.2582 37.6718-42.8079C36.0939-40.6177 35.1935-37.9269 35.1935-35.2143ZM62.4684-35.2143C62.4684-37.9269 61.5682-40.6177 59.9917-42.8079C58.875-44.2582 56.8488-44.345 55.7016-43.0288C54.6886-41.9699 54.8715-40.6139 55.9015-39.1011C56.6473-38.0048 57.0037-36.7338 57.0037-35.2143C57.0037-33.6917 56.6473-32.4237 55.9015-31.3274C54.8715-29.8147 54.6886-28.4587 55.7016-27.3998C56.8488-26.0835 58.875-26.1703 59.9917-27.6206C61.5682-29.8093 62.4684-32.5017 62.4684-35.2143Z"/>
   <path class="monochrome-4 multicolor-4:white hierarchical-4:primary SFSymbolsPreviewWireframe" d="M44.2839-35.1654C44.2839-32.7349 46.4064-30.6915 48.8843-30.6915C51.3638-30.6915 53.4071-32.7349 53.4071-35.2143C53.4071-37.7471 51.3882-39.7904 48.8843-39.7904C46.3531-39.7904 44.2839-37.6693 44.2839-35.1654Z"/>
  </g>
  <g id="Regular-S" transform="matrix(1 0 0 1 1403.58 696)">
   <path class="monochrome-0 multicolor-0:tintColor hierarchical-0:tertiary SFSymbolsPreviewWireframe" d="M46.2402 4.15039C68.0176 4.15039 85.6934-13.5254 85.6934-35.2539C85.6934-56.9824 68.0176-74.6582 46.2402-74.6582C24.5117-74.6582 6.83594-56.9824 6.83594-35.2539C6.83594-13.5254 24.5117 4.15039 46.2402 4.15039Z"/>
   <path class="monochrome-1 multicolor-1:white hierarchical-1:primary SFSymbolsPreviewWireframe" d="M19.0545-35.2157C19.0545-28.7 21.4064-22.6509 25.6767-18.1431C26.6026-17.1285 28.0046-17.172 28.8245-18.0927C29.6373-18.9681 29.4827-20.2311 28.5585-21.209C25.1488-24.8684 23.2653-29.8007 23.2653-35.2157C23.2653-40.6306 25.1488-45.5629 28.5585-49.2223C29.4827-50.2002 29.6373-51.4772 28.8245-52.3386C28.0046-53.2593 26.6026-53.3028 25.6767-52.3021C21.4064-47.7804 19.0545-41.7314 19.0545-35.2157ZM73.4761-35.2157C73.4761-41.7314 71.1241-47.7804 66.8539-52.3021C65.914-53.3028 64.5261-53.2593 63.7061-52.3386C62.8933-51.4772 63.0495-50.2002 63.9721-49.2223C67.3818-45.5629 69.2652-40.6306 69.2652-35.2157C69.2652-29.8007 67.3818-24.8684 63.9721-21.209C63.0495-20.2311 62.8933-18.9681 63.7061-18.0927C64.5261-17.172 65.914-17.1285 66.8539-18.1431C71.1241-22.6509 73.4761-28.7 73.4761-35.2157Z"/>
   <path class="monochrome-2 multicolor-2:white hierarchical-2:primary SFSymbolsPreviewWireframe" d="M26.3931-35.2157C26.3931-30.5588 28.0018-26.1748 30.9629-22.8721C31.9271-21.821 33.3809-21.8105 34.2303-22.7849C35.0398-23.6986 34.8576-24.8837 33.935-25.9137C31.7657-28.4336 30.604-31.6522 30.604-35.2157C30.604-38.7792 31.7657-41.9978 33.935-44.5316C34.8576-45.5476 35.0398-46.7327 34.2303-47.6464C33.3809-48.6208 31.9271-48.6103 30.9629-47.5593C28.0018-44.2565 26.3931-39.8725 26.3931-35.2157ZM66.1375-35.2157C66.1375-39.8725 64.5148-44.2565 61.5538-47.5593C60.6035-48.6103 59.1358-48.6208 58.2864-47.6464C57.4768-46.7327 57.673-45.5476 58.5956-44.5316C60.7665-41.9978 61.9266-38.7792 61.9266-35.2157C61.9266-31.6522 60.7665-28.4336 58.5956-25.9137C57.673-24.8837 57.4768-23.6986 58.2864-22.7849C59.1358-21.8105 60.6035-21.821 61.5538-22.8721C64.5148-26.1748 66.1375-30.5588 66.1375-35.2157Z"/>
   <path class="monochrome-3 multicolor-3:white hierarchical-3:primary SFSymbolsPreviewWireframe" d="M33.7318-35.2157C33.7318-32.5744 34.6041-30.0401 36.1273-27.9842C37.0133-26.8413 38.5713-26.8049 39.4417-27.7898C40.2579-28.6671 40.02-29.7548 39.2137-30.9097C38.3563-32.1178 37.9426-33.5786 37.9426-35.2157C37.9426-36.8511 38.3563-38.3135 39.2137-39.5216C40.02-40.6765 40.2579-41.7642 39.4417-42.6415C38.5713-43.6264 37.0133-43.59 36.1273-42.4472C34.6041-40.4052 33.7318-37.857 33.7318-35.2157ZM58.7988-35.2157C58.7988-37.857 57.9265-40.4052 56.3894-42.4472C55.5173-43.59 53.9454-43.6264 53.075-42.6415C52.2743-41.7642 52.5106-40.6765 53.3169-39.5216C54.1604-38.3135 54.5879-36.8511 54.5879-35.2157C54.5879-33.5786 54.1604-32.1178 53.3169-30.9097C52.5106-29.7548 52.2743-28.6671 53.075-27.7898C53.9454-26.8049 55.5173-26.8413 56.3894-27.9842C57.9265-30.0401 58.7988-32.5744 58.7988-35.2157Z"/>
   <path class="monochrome-4 multicolor-4:white hierarchical-4:primary SFSymbolsPreviewWireframe" d="M42.2818-35.1668C42.2818-33.0524 44.1246-31.2566 46.3019-31.2566C48.4652-31.2566 50.2609-33.0524 50.2609-35.2157C50.2609-37.4155 48.4896-39.2113 46.3019-39.2113C44.0881-39.2113 42.2818-37.3546 42.2818-35.1668Z"/>
  </g>
  <g id="Ultralight-S" transform="matrix(1 0 0 1 515.649 696)">
   <path class="monochrome-0 multicolor-0:tintColor hierarchical-0:tertiary SFSymbolsPreviewWireframe" d="M44.0606 1.97072C64.521 1.97072 81.2886-14.7969 81.2886-35.2539C81.2886-55.7109 64.521-72.4785 44.0606-72.4785C23.6035-72.4785 6.83594-55.7109 6.83594-35.2539C6.83594-14.7969 23.6035 1.97072 44.0606 1.97072Z"/>
   <path class="monochrome-1 multicolor-1:white hierarchical-1:primary SFSymbolsPreviewWireframe" d="M21.0549-35.2317C21.0549-28.8727 23.567-23.1372 27.7562-18.8866C28.1964-18.4019 28.8389-18.4419 29.2046-18.8521C29.5516-19.2335 29.4771-19.8215 29.0468-20.2574C25.1039-24.2618 22.9637-29.5314 22.9637-35.2317C22.9637-40.932 25.1039-46.2015 29.0468-50.2059C29.4771-50.6418 29.5516-51.2399 29.2046-51.6112C28.8389-52.0214 28.1964-52.0615 27.7562-51.5868C23.567-47.3261 21.0549-41.5907 21.0549-35.2317ZM67.0688-35.2317C67.0688-41.5907 64.5568-47.3261 60.3676-51.5868C59.9173-52.0615 59.2849-52.0214 58.9192-51.6112C58.5722-51.2399 58.6323-50.6418 59.0769-50.2059C63.0199-46.2015 65.1601-40.932 65.1601-35.2317C65.1601-29.5314 63.0199-24.2618 59.0769-20.2574C58.6323-19.8215 58.5722-19.2335 58.9192-18.8521C59.2849-18.4419 59.9173-18.4019 60.3676-18.8866C64.5568-23.1372 67.0688-28.8727 67.0688-35.2317Z"/>
   <path class="monochrome-2 multicolor-2:white hierarchical-2:primary SFSymbolsPreviewWireframe" d="M27.4861-35.2317C27.4861-30.7238 29.2025-26.6053 32.151-23.5553C32.6013-23.0706 33.2394-23.0562 33.6108-23.472C33.9865-23.8879 33.9163-24.4702 33.4718-24.9262C30.8415-27.6867 29.3949-31.3149 29.3949-35.2317C29.3949-39.1484 30.8415-42.7766 33.4718-45.5472C33.9163-45.9931 33.9865-46.5755 33.6108-46.9913C33.2394-47.4071 32.6013-47.3927 32.151-46.908C29.2025-43.8581 27.4861-39.7395 27.4861-35.2317ZM60.6377-35.2317C60.6377-39.7395 58.9112-43.8581 55.9628-46.908C55.5225-47.3927 54.8743-47.4071 54.503-46.9913C54.1272-46.5755 54.2074-45.9931 54.652-45.5472C57.2679-42.7766 58.7289-39.1484 58.7289-35.2317C58.7289-31.3149 57.2679-27.6867 54.652-24.9262C54.2074-24.4702 54.1272-23.8879 54.503-23.472C54.8743-23.0562 55.5225-23.0706 55.9628-23.5553C58.9112-26.6053 60.6377-30.7238 60.6377-35.2317Z"/>
   <path class="monochrome-3 multicolor-3:white hierarchical-3:primary SFSymbolsPreviewWireframe" d="M33.9174-35.2317C33.9174-32.6869 34.8294-30.3419 36.4482-28.5471C36.8684-28.0467 37.5466-28.0467 37.9468-28.4769C38.2894-28.8928 38.1791-29.4263 37.7746-29.9023C36.5202-31.3113 35.8261-33.1817 35.8261-35.2317C35.8261-37.2961 36.5202-39.152 37.7746-40.5611C38.1791-41.037 38.2894-41.5706 37.9468-41.9864C37.5466-42.4167 36.8684-42.4167 36.4482-41.9163C34.8294-40.1315 33.9174-37.7764 33.9174-35.2317ZM54.2064-35.2317C54.2064-37.7764 53.2944-40.1315 51.6656-41.9163C51.2554-42.4167 50.5671-42.4167 50.167-41.9864C49.8201-41.5706 49.9447-41.037 50.3492-40.5611C51.5936-39.152 52.2977-37.2961 52.2977-35.2317C52.2977-33.1817 51.5936-31.3113 50.3492-29.9023C49.9447-29.4263 49.8201-28.8928 50.167-28.4769C50.5671-28.0467 51.2554-28.0467 51.6656-28.5471C53.2944-30.3419 54.2064-32.6869 54.2064-35.2317Z"/>
   <path class="monochrome-4 multicolor-4:white hierarchical-4:primary SFSymbolsPreviewWireframe" d="M40.7709-35.1828C40.7709-33.4469 42.2915-31.9651 44.0863-31.9651C45.8711-31.9651 47.3529-33.4469 47.3529-35.2317C47.3529-37.0409 45.8955-38.5227 44.0863-38.5227C42.2671-38.5227 40.7709-36.9921 40.7709-35.1828Z"/>
  </g>
 </g>
</svg>
