<?xml version="1.0" encoding="UTF-8"?><!-- Created with Inkscape (http://www.inkscape.org/) --><svg xmlns:inkscape="http://www.inkscape.org/namespaces/inkscape" xmlns:sodipodi="http://sodipodi.sourceforge.net/DTD/sodipodi-0.dtd" xmlns:xlink="http://www.w3.org/1999/xlink" xmlns="http://www.w3.org/2000/svg" xmlns:svg="http://www.w3.org/2000/svg" width="184.23723mm" height="104.13491mm" viewBox="0 0 184.23723 104.13491" version="1.1" id="svg1" xml:space="preserve" inkscape:version="1.4.2 (ebf0e940, 2025-05-08)" sodipodi:docname="disk2-vectorized.svg" inkscape:export-filename="disk2-vectorized.png" inkscape:export-xdpi="96" inkscape:export-ydpi="96"><sodipodi:namedview id="namedview1" pagecolor="#ffffff" bordercolor="#000000" borderopacity="0.25" inkscape:showpageshadow="2" inkscape:pageopacity="0.0" inkscape:pagecheckerboard="0" inkscape:deskcolor="#d1d1d1" inkscape:document-units="mm" inkscape:zoom="1.3276123" inkscape:cx="324.64297" inkscape:cy="183.7886" inkscape:window-width="1432" inkscape:window-height="835" inkscape:window-x="69" inkscape:window-y="38" inkscape:window-maximized="0" inkscape:current-layer="layer3"><inkscape:page x="-8.79512e-15" y="-2.6469517e-13" width="184.23721" height="104.1349" id="page2" margin="0" bleed="0"/></sodipodi:namedview><defs id="defs1"><linearGradient id="linearGradient36" inkscape:collect="always"><stop style="stop-color:#000000;stop-opacity:1;" offset="0.82089549" id="stop36"/><stop style="stop-color:#000000;stop-opacity:0;" offset="1" id="stop37"/></linearGradient><linearGradient inkscape:collect="always" xlink:href="#linearGradient36" id="linearGradient37" x1="104.56184" y1="52.683987" x2="104.56184" y2="98.425369" gradientUnits="userSpaceOnUse"/><linearGradient inkscape:collect="always" xlink:href="#linearGradient36" id="linearGradient8" gradientUnits="userSpaceOnUse" x1="104.56184" y1="52.683987" x2="104.56184" y2="98.425369" gradientTransform="translate(-1.4361851e-4,3.2440149e-4)"/></defs><g inkscape:groupmode="layer" id="layer2" inkscape:label="Layer 2" transform="translate(-13.162939,-29.949085)"><rect style="fill:none;stroke:#000000;stroke-width:3;stroke-linejoin:round;stroke-dasharray:none;stroke-opacity:1" id="rect1" width="181.23721" height="101.1349" x="14.662939" y="31.449081"/><path d="m 28.878219,115.43668 v 6.52989 h -1.238246 c -0.772581,0 -1.396996,-0.60325 -1.396996,-1.35466 0,-0.75141 0.634998,-1.36525 1.407579,-1.36525 h 0.719664 v -1.90499 h -1.460495 c -1.756828,0 -3.100907,1.47108 -3.100907,3.24907 0,1.56633 1.449912,3.28083 3.14324,3.28083 h 4.148654 v -8.43489 z m 2.719906,0 v 1.46049 h 2.222493 v -1.46049 z m 0,1.90499 v 6.5299 h 2.222493 v -6.5299 z m 2.751658,2.10608 c 0,1.15358 0.751414,2.11666 1.904994,2.11666 h 1.534578 c 0.105833,0 0.201083,0.0953 0.201083,0.20108 0,0.10583 -0.09525,0.20108 -0.201083,0.20108 h -3.439572 v 1.905 h 3.640655 c 1.153579,0 1.904994,-0.9525 1.904994,-2.10608 0,-1.15358 -0.751415,-2.11666 -1.904994,-2.11666 h -1.545162 c -0.105833,0 -0.190499,-0.0953 -0.190499,-0.20108 0,-0.10584 0.08467,-0.20109 0.190499,-0.20109 h 3.450156 v -1.90499 h -3.640655 c -1.15358,0 -1.904994,0.9525 -1.904994,2.10608 z m 6.000728,-4.01107 v 8.43489 h 2.222493 v -2.74108 h 0.93133 c 0.677332,0 1.333496,0.60325 1.333496,1.24883 v 1.49225 h 2.222493 v -1.60866 c 0,-0.91017 -0.497415,-1.778 -1.428745,-2.07433 0.761997,-0.11642 1.428745,-0.96308 1.428745,-1.7145 v -1.13241 H 44.83783 v 0.61383 c 0,0.64558 -0.698498,1.27 -1.333496,1.27 h -0.93133 v -3.78882 z m 10.413971,1.90499 v 4.6249 h -1.111247 v 1.905 h 3.33374 v -8.43489 h -3.33374 v 1.90499 z m 2.677573,-1.90499 v 8.43489 h 3.33374 v -1.905 h -1.111247 v -4.6249 h 1.111247 v -1.90499 z" id="text1" style="font-size:10.5833px;font-family:'Motter Tektura Retro';-inkscape-font-specification:'Motter Tektura Retro, Normal';stroke:#000000;stroke-width:0;stroke-linejoin:round" inkscape:label="disk ][" aria-label="disk ]["/><path d="m 160.68119,102.271 q 0.79065,0 2.58279,-0.61495 1.79214,-0.61495 3.10988,-0.61495 2.16111,0 3.84783,1.15962 0.94878,0.66765 1.87999,1.8097 -1.4056,1.19476 -2.05569,2.12597 -1.17719,1.68672 -1.17719,3.72483 0,2.23139 1.24747,4.02353 1.24747,1.79213 2.84633,2.26652 -0.66766,2.16111 -2.21381,4.51548 -2.33681,3.53157 -4.63847,3.53157 -0.91364,0 -2.53008,-0.57981 -1.59887,-0.57981 -2.70578,-0.57981 -1.1069,0 -2.58278,0.59738 -1.45831,0.61495 -2.37195,0.61495 -2.75848,0 -5.41155,-4.67361 -2.65306,-4.62091 -2.65306,-9.06611 0,-4.12894 2.02054,-6.7293 2.03812,-2.60035 5.13043,-2.60035 1.31775,0 3.18017,0.54467 1.87999,0.54467 2.49493,0.54467 z m 5.49941,-7.256402 q 0,1.124478 -0.5271,2.459795 -0.5271,1.335318 -1.66915,2.477366 -0.98392,0.966351 -1.95027,1.300181 -0.61495,0.19327 -1.86241,0.29869 0.0351,-2.670639 1.38802,-4.620906 1.37046,-1.950266 4.51549,-2.670635 0.0703,0.228409 0.0879,0.404109 0.0176,0.1757 0.0176,0.3514 z" id="text2" style="font-size:35.9833px;font-family:'Motter Tektura Retro';-inkscape-font-specification:'Motter Tektura Retro, Normal';stroke:#000000;stroke-width:0;stroke-linejoin:round" inkscape:label="" aria-label=""/><path d="m 24.879685,52.896534 h 1.086066 c 0.960665,0 1.524971,-0.597896 1.524971,-1.616783 v -0.0045 c 0,-1.014408 -0.568785,-1.610065 -1.524971,-1.610065 h -1.086066 z m 0.403076,-0.362769 v -2.505789 h 0.656118 c 0.732255,0 1.13981,0.445623 1.13981,1.251775 v 0.0045 c 0,0.801673 -0.407555,1.249535 -1.13981,1.249535 z m 2.709567,0.362769 h 0.403076 v -1.278647 h 0.772562 l 0.691948,1.278647 h 0.472494 l -0.74793,-1.341348 c 0.403076,-0.12764 0.649401,-0.474734 0.649401,-0.922596 v -0.0045 c 0,-0.582221 -0.407555,-0.962904 -1.030084,-0.962904 h -1.211467 z m 0.403076,-1.634697 v -1.23834 h 0.754648 c 0.414273,0 0.667315,0.22841 0.667315,0.613572 v 0.0045 c 0,0.396358 -0.235128,0.62029 -0.649401,0.62029 z m 2.344559,1.634697 h 0.403076 v -3.231327 h -0.403076 z m 1.963877,0 h 0.398597 l 1.191314,-3.231327 h -0.42323 l -0.962904,2.747636 h -0.009 l -0.962904,-2.747636 h -0.42323 z m 1.959397,0 h 2.001945 v -0.362769 h -1.598869 v -1.110698 h 1.516014 v -0.35829 h -1.516014 v -1.036801 h 1.598869 v -0.362769 h -2.001945 z" id="text3" style="font-size:4.58611px;font-family:'SF Pro Display';-inkscape-font-specification:'SF Pro Display, Normal';stroke:#000000;stroke-width:0;stroke-linejoin:round" inkscape:label="DRIVE" aria-label="DRIVE"/><path d="m 24.039,106.38741 h 0.341065 v -2.7342 H 24.039 Z m 0.87161,0 h 0.337275 v -2.15818 h 0.0095 l 1.504475,2.15818 h 0.331591 v -2.7342 H 26.75615 v 2.15818 h -0.0095 l -1.504475,-2.15818 H 24.91061 Z m 4.596796,0.0455 c 0.67834,0 1.083829,-0.40928 1.083829,-1.00425 v -1.77543 H 30.25017 v 1.75269 c 0,0.42065 -0.269063,0.71245 -0.742764,0.71245 -0.473701,0 -0.746553,-0.2918 -0.746553,-0.71245 v -1.75269 h -0.341065 v 1.77543 c 0,0.59497 0.409278,1.00425 1.087618,1.00425 z m 2.508722,0 c 0.625285,0 1.009931,-0.30696 1.009931,-0.79203 v -0.002 c 0,-0.41686 -0.234956,-0.64424 -0.795818,-0.7674 l -0.303169,-0.0663 c -0.356223,-0.0777 -0.521071,-0.2179 -0.521071,-0.44149 v -0.002 c 0,-0.26338 0.238745,-0.4377 0.604442,-0.4396 0.34675,0 0.579811,0.16485 0.621496,0.44339 l 0.0038,0.0265 h 0.341065 l -0.0019,-0.0284 c -0.03032,-0.44717 -0.420647,-0.75603 -0.954982,-0.75603 -0.562757,0 -0.960666,0.31454 -0.96256,0.76361 v 0.002 c 0,0.3998 0.250114,0.64044 0.784449,0.75792 l 0.303168,0.0663 c 0.375172,0.0834 0.532441,0.2179 0.532441,0.45854 v 0.002 c 0,0.28233 -0.24822,0.46044 -0.642339,0.46044 -0.396014,0 -0.661287,-0.16864 -0.701078,-0.44338 l -0.0038,-0.0265 h -0.341064 l 0.0019,0.0265 c 0.03411,0.46801 0.433911,0.75792 1.02509,0.75792 z m 1.40784,-0.0455 h 1.693955 v -0.30696 h -1.35289 v -0.93982 h 1.282782 v -0.30317 h -1.282782 v -0.87729 h 1.35289 v -0.30696 h -1.693955 z" id="text4" style="font-size:3.88056px;font-family:'SF Pro Display';-inkscape-font-specification:'SF Pro Display, Normal';stroke:#000000;stroke-width:0;stroke-linejoin:round" inkscape:label="IN USE" aria-label="IN USE"/><path d="m 39.040284,107.39785 c 0.138665,0 0.249597,-0.0594 0.388262,-0.13074 l 3.894508,-1.89377 c 0.29714,-0.14659 0.384301,-0.27733 0.384301,-0.45562 0,-0.17828 -0.08716,-0.30902 -0.384301,-0.45561 l -3.894508,-1.89377 c -0.142627,-0.0713 -0.253559,-0.13074 -0.392224,-0.13074 -0.249597,0 -0.40411,0.19413 -0.40411,0.48731 l 0.004,3.98563 c 0,0.29318 0.154512,0.48731 0.40411,0.48731 z" id="text5" style="font-size:8.11389px;font-family:'SF Pro Display';-inkscape-font-specification:'SF Pro Display, Normal';stroke:#000000;stroke-width:0;stroke-linejoin:round" inkscape:label="▶︎" aria-label="▶︎"/><ellipse style="fill:none;fill-opacity:1;stroke:#000000;stroke-width:0.192396;stroke-linejoin:round;stroke-dasharray:none" id="path5" cx="51.421341" cy="105.18472" rx="4.4038024" ry="4.4038019" inkscape:label="drive light outer"/><path d="M 81.800548,83.604658 V 76.39481 H 24.686786 V 72.317567 H 81.800548 V 66.186199 H 17.211927 v 17.418459 z" style="opacity:1;fill:none;stroke:#000000;stroke-width:0.200115;stroke-linejoin:round" id="path33"/><path d="m 127.32297,66.186047 v 6.131476 h 57.68711 v 4.077312 h -57.68711 v 7.209975 h 66.16471 V 66.186047 Z" style="opacity:1;fill:none;stroke:#000000;stroke-width:0.199813;stroke-linejoin:round" id="path27"/><path d="M 81.725761,72.31755 H 24.67808 v 4.07727 h 57.047681 z" style="stroke:#000000;stroke-width:0.157;stroke-linejoin:round" id="path34"/><path d="m 127.39791,72.31755 v 4.07727 h 57.79544 v -4.07727 z" style="stroke:#000000;stroke-width:0.157;stroke-linejoin:round" id="path29"/></g><g inkscape:groupmode="layer" id="layer3" inkscape:label="Layer 3" transform="translate(-13.162939,-29.949085)"><path id="path26-7" style="display:inline;fill:url(#linearGradient8);fill-opacity:0.96578;stroke:#000000;stroke-width:0.2;stroke-linecap:round;stroke-linejoin:round;stroke-dasharray:none;stroke-opacity:1" inkscape:label="DriveDoorClosed" d="M 81.790873,41.210921 V 109.89924 H 127.33228 V 41.210921 Z m 0.492993,0.571025 H 126.81035 V 83.67758 H 82.283866 Z"/><path id="path5-3" style="display:inline;fill:#ff0000;fill-opacity:0.96578;stroke:none;stroke-width:0.192;stroke-linejoin:round;stroke-dasharray:none" inkscape:label="DriveLight" d="m 50.557047,101.33467 c -1.953491,0.43487 -3.344331,2.4987 -2.936022,4.47107 0.327976,2.07617 2.541038,3.55334 4.588328,3.08509 2.11735,-0.39992 3.56376,-2.76646 2.914177,-4.82687 -0.507204,-1.94903 -2.615759,-3.17021 -4.566483,-2.72929 z"/><path d="m 42.016664,46.789172 h 2.956991 v 8.137548 h -1.30387 v -6.91517 h -1.653121 z" id="text7" style="font-size:11.6417px;font-family:Montserrat;-inkscape-font-specification:'Montserrat, Normal';fill-opacity:0.96578;stroke-width:0.192;stroke-linecap:round;stroke-linejoin:round" inkscape:label="Drive1" aria-label="1"/></g></svg>
